# xmcd CD database file
#
# Track frame offsets:
#	150
#	14337
#	27737
#	42795
#	58625
#	70677
#	86297
#	107132
#	127667
#	149132
#	165765
#	185422
#
# Disc length: 2745 seconds
#
# Revision: 0
# Processed by: cddbd v1.5.1PL0 Copyright (c) Steve Scherf et al.
# Submitted via: CDex 1.50beta9
#
DISCID=980ab70c
DTITLE=Sean Wilson - When Irish Eyes Are Smiling
DYEAR=1900
DGENRE=Country
TTITLE0=Medley: Come Into The Parlour - With My Shillelagh Under Me Arm - Eileen Og - West Meath Batchelor - Hannigans Hooley.
TTITLE1=When Irish Eyes Are Smiling
TTITLE2=My Own Donegal
TTITLE3=Sprig Of Irish Heather
TTITLE4=The Peace Song
TTITLE5=Rosie O'Brien
TTITLE6=The Little Pub In London
TTITLE7=The Old Man
TTITLE8=Medley: Peggy O'Neill -My Wild Irish Rose - Nora Malone - Little Nelly Kelly - Pretty Kitty Kelly.
TTITLE9=Daddy's Girl
TTITLE10=The Titanic Story
TTITLE11=Goodbye, Good Luckm Farewell.
EXTD=
EXTT0=
EXTT1=
EXTT2=
EXTT3=
EXTT4=
EXTT5=
EXTT6=
EXTT7=
EXTT8=
EXTT9=
EXTT10=
EXTT11=
PLAYORDER=
